<svg xmlns="http://www.w3.org/2000/svg" width="76" height="70" viewBox="0 0 76 70">
    <g fill="#9EDC15" fill-rule="evenodd">
        <path d="M65.166 23.654a32.268 32.268 0 0 0-2.785-6.614C53.59 1.336 33.472-4.261 17.56 4.534 1.646 13.33-4.13 33.254 4.662 48.958c8.792 15.704 28.883 21.308 44.796 12.512a2.53 2.53 0 0 0 1.55-2.192 2.49 2.49 0 0 0-1.311-2.324 2.56 2.56 0 0 0-2.69.167c-13.514 7.47-30.446 2.714-37.913-10.623C1.628 33.162 6.497 16.352 20.011 8.883 33.525 1.414 50.483 6.163 57.95 19.5a27.323 27.323 0 0 1 1.579 23.362 2.487 2.487 0 0 0 .217 2.65 2.536 2.536 0 0 0 2.5.956 2.547 2.547 0 0 0 1.98-1.807c2.663-6.784 2.963-14.17.941-21.006z"/>
        <path stroke="#9EDC15" d="M53.672 27.694a20.045 20.045 0 0 0-1.73-4.109c-5.461-9.755-17.958-13.232-27.844-7.768-9.885 5.464-13.474 17.84-8.012 27.596S34.03 56.65 43.914 51.186c.557-.235.93-.764.962-1.362a1.547 1.547 0 0 0-.813-1.443 1.59 1.59 0 0 0-1.672.104c-8.395 4.64-18.913 1.685-23.551-6.6-4.639-8.284-1.614-18.727 6.781-23.367 8.395-4.64 18.93-1.69 23.568 6.595a16.974 16.974 0 0 1 .98 14.513c-.275.53-.223 1.17.136 1.645.359.477.961.707 1.553.595a1.582 1.582 0 0 0 1.23-1.122 20.101 20.101 0 0 0 .584-13.05z"/>
        <path fill-rule="nonzero" d="M75.512 60.346l-8.869-7.255c-.214-.182-.411-.165-.6-.048l-3.592 2.02c-.188.118-.394.035-.6-.047L40.704 37.794c-.214-.182-.25-.58-.078-.897.691-1.165.963-2.594.922-4.196-.288-3.288-2.608-5.996-5.747-6.725-4.856-1.08-9.276 2.82-8.832 7.9.262 2.988 2.269 5.523 5.121 6.378 1.94.633 3.802.37 5.424-.374.286-.126.492-.043.697.039l21.676 17.578c.214.182.232.38.15.589L58.9 62.1c-.081.208.035.399.15.59l8.86 7.154c.322.273.805.13.87-.276l1.506-5.453c.09-.108.17-.316.27-.324l4.918-2.74c.295-.025.35-.532.038-.705z"/>
    </g>
</svg>
