<svg width="16" height="25" viewBox="0 0 16 25" xmlns="http://www.w3.org/2000/svg">
    <g fill="none" fill-rule="evenodd">
        <path d="M-5-4h26v32H-5z"/>
        <path d="M1.14 4.722c.25-.422.442-.872.718-1.265.827-1.238 1.985-2.081 3.39-2.56.387-.112.745-.28 1.104-.393.827-.253 1.488.028 1.847.816.165.365.33.759.413 1.18.166.844.331 1.688.441 2.531.055.394 0 .816-.082 1.21-.166.759-.69 1.237-1.406 1.462l-1.49.506c-.744.225-1.13.703-1.24 1.462-.138.816 0 1.603.193 2.39.359 1.49.882 2.925 1.6 4.246.33.62.716 1.181 1.295 1.575.496.366 1.048.394 1.599.14.524-.224 1.048-.45 1.571-.646.965-.337 1.765-.112 2.427.675.303.365.55.731.771 1.125.386.703.717 1.406 1.048 2.137.11.253.165.506.22.787.11.731-.165 1.294-.799 1.575-.882.365-1.764.787-2.702.928-1.185.197-2.343.056-3.473-.394-1.572-.647-2.812-1.743-3.833-3.093-.91-1.181-1.599-2.475-2.205-3.852C1.61 15.098.893 12.877.562 10.543.369 9.109.342 7.675.645 6.269c.055-.31.165-.619.22-.9.11-.253.193-.45.276-.647z" fill="#4C4C4C" fill-rule="nonzero"/>
    </g>
</svg>
