<svg width="97" height="107" viewBox="0 0 97 107" xmlns="http://www.w3.org/2000/svg">
    <g fill="none" fill-rule="evenodd">
        <ellipse fill="#FFF" cx="47.236" cy="59.408" rx="46.009" ry="45.006"/>
        <path d="M48.464 11.969C21.99 11.969.452 33.09.452 59.053c0 25.963 21.538 47.085 48.012 47.085s48.012-21.122 48.012-47.085c0-25.962-21.538-47.084-48.012-47.084zm0 89.848c-24.044 0-43.607-19.183-43.607-42.764 0-23.58 19.563-42.764 43.607-42.764S92.07 35.473 92.07 59.053c0 23.58-19.562 42.764-43.606 42.764zM37.934 6.586c0 1.05.503 2.888 3.863 3.414 1.421.223 3.253.24 5.325.24h2.684c4.516 0 9.186 0 9.186-3.654l.002-.209c.014-.874.038-2.501-1.363-3.896C56.043.9 53.216.197 48.465.197c-4.753 0-7.58.705-9.167 2.284-1.402 1.395-1.378 3.023-1.364 3.897v.208zm4.5-1.071c.168-.167 1.245-.997 6.03-.997s5.86.83 6.028.997c.04.04.067.097.081.204-1.167.2-3.524.2-4.767.2h-2.684c-1.243 0-3.6 0-4.769-.2.015-.107.04-.164.082-.204zm8.232 16.192v6.23c0 1.193-.986 2.16-2.203 2.16-1.216 0-2.203-.967-2.203-2.16v-6.23c0-1.193.987-2.16 2.203-2.16 1.217 0 2.203.967 2.203 2.16zm0 67.522v6.23c0 1.193-.986 2.16-2.203 2.16-1.216 0-2.203-.967-2.203-2.16v-6.23c0-1.193.987-2.16 2.203-2.16 1.217 0 2.203.967 2.203 2.16zM88.27 58.583c0 1.193-.987 2.16-2.203 2.16h-6.353c-1.216 0-2.203-.967-2.203-2.16s.987-2.16 2.203-2.16h6.353c1.216 0 2.203.967 2.203 2.16zm-68.854 0c0 1.193-.986 2.16-2.202 2.16H10.86c-1.217 0-2.203-.967-2.203-2.16s.986-2.16 2.203-2.16h6.352c1.217 0 2.202.967 2.202 2.16z" fill="#D3D2D2" fill-rule="nonzero"/>
        <path d="M67.768 37.413l5.445-1.373-.908 5.138-18.368 15.636a5.71 5.71 0 0 1 .456 2.24c0 3.21-2.654 5.815-5.929 5.815-3.276 0-5.93-2.604-5.93-5.816 0-.032.004-.062.005-.094L31.823 50.5l.154-6.857 6.992-.153 8.13 9.908a5.97 5.97 0 0 1 5.005 1.07l15.664-17.056zm22.278-23.884l-13.43-8.82c-2.263-1.485-5.327-.89-6.842 1.329l-3.738 5.474a51.653 51.653 0 0 1 21.427 14.494l3.938-5.767c1.515-2.22.91-5.224-1.355-6.71zm-69.332-8.82l-13.43 8.82c-2.264 1.485-2.87 4.49-1.355 6.71l3.761 5.51a51.665 51.665 0 0 1 21.528-14.347l-3.662-5.365c-1.516-2.219-4.58-2.813-6.842-1.328z" fill="#9EDC15" fill-rule="nonzero"/>
    </g>
</svg>
