<?xml version="1.0" encoding="UTF-8"?>
<svg width="27px" height="23px" viewBox="0 0 27 23" version="1.1" xmlns="http://www.w3.org/2000/svg" xmlns:xlink="http://www.w3.org/1999/xlink">
    <!-- Generator: sketchtool 50 (54983) - http://www.bohemiancoding.com/sketch -->
    <title>C9840BE9-1A3B-423A-8CF9-75AE20237D02</title>
    <desc>Created with sketchtool.</desc>
    <defs></defs>
    <g id="2_Desktop" stroke="none" stroke-width="1" fill="none" fill-rule="evenodd">
        <g id="2_12_Ap.-process_doc-upload" transform="translate(-563.000000, -559.000000)" fill="#4C4C4C" fill-rule="nonzero">
            <g id="Group-25" transform="translate(472.000000, 458.000000)">
                <g id="Group-22" transform="translate(0.000000, 49.000000)">
                    <g id="Group-9" transform="translate(68.000000, 35.000000)">
                        <g id="Group-7">
                            <g id="Group-6" transform="translate(7.306452, 17.165775)">
                                <path d="M37.8967742,4.60635769 C36.7505376,4.60635769 35.8,3.7577243 35.4365591,2.6164587 C35.1010753,1.59224599 34.1784946,0.802139037 33.116129,0.802139037 L29.2860215,0.802139037 L25.427957,0.802139037 C24.3655914,0.802139037 23.4430108,1.62150921 23.1075269,2.6164587 C22.744086,3.72846108 21.7935484,4.60635769 20.6473118,4.60635769 C18.4666667,4.60635769 16.6774194,6.06951872 16.6774194,8.35204991 L16.6774194,17.6284908 C16.6774194,19.911022 18.4666667,21.8716578 20.6473118,21.8716578 L29.2860215,21.8716578 L37.9247312,21.8716578 C40.0774194,21.8716578 41.8387097,19.911022 41.8387097,17.6284908 L41.8387097,8.35204991 C41.8387097,6.06951872 40.0774194,4.60635769 37.8967742,4.60635769 Z M32.7247312,15.6385918 C31.8021505,16.6042781 30.572043,17.131016 29.2860215,17.131016 C29.1462366,17.131016 29.0064516,17.131016 28.8387097,17.1017528 C26.4903226,16.8969103 24.6451613,14.9362745 24.4494624,12.5074272 C24.3096774,10.9857398 24.8408602,9.52257873 25.8473118,8.43983957 C26.8817204,7.35710042 28.2795699,6.83036245 29.7333333,6.97667855 C32.0817204,7.18152109 33.9268817,9.14215686 34.1225806,11.5710042 C34.2344086,13.0926916 33.7311828,14.5851159 32.7247312,15.6385918 Z" id="Shape"></path>
                            </g>
                        </g>
                    </g>
                </g>
            </g>
        </g>
    </g>
</svg>