<svg xmlns="http://www.w3.org/2000/svg" width="15" height="14" viewBox="0 0 15 14">
    <g fill="#C4C4C4" fill-rule="nonzero">
        <path d="M3.954 11.6c-.343-.02-.687-.008-1.03-.01-.438-.002-.667-.246-.667-.714V3.11c0-.458.229-.703.66-.707.33-.002.66.009.989-.004.616-.02 1.103-.562 1.09-1.217C4.989.536 4.499.017 3.878.005c-.37-.006-.742-.007-1.113 0C1.47.038.353 1.007.07 2.341c-.026.122-.046.246-.069.369v8.572c.01.047.023.094.03.141.171 1.316 1.214 2.412 2.46 2.54.49.05.988.04 1.482.02.405-.015.703-.26.895-.634.385-.752-.11-1.702-.913-1.75z"/>
        <path d="M10.713 2.345A1.21 1.21 0 0 0 9.855 2a1.278 1.278 0 0 0-1.18.746c-.205.459-.102.993.26 1.346.531.528 1.066 1.056 1.6 1.582.037.036.071.086.128.142h-.275c-1.7 0-3.4-.007-5.1-.003-.847.002-1.44.723-1.253 1.514.13.555.656.942 1.276.943 1.716 0 3.43-.006 5.146-.006h.177a.577.577 0 0 0 .044.068c-.05.028-.107.048-.144.085-.509.493-1.02.984-1.52 1.486a1.195 1.195 0 0 0-.006 1.717c.495.49 1.278.514 1.78.028a534.314 534.314 0 0 0 3.854-3.766c.23-.224.359-.53.358-.847 0-.317-.13-.621-.361-.845a757.787 757.787 0 0 0-3.926-3.845z"/>
    </g>
</svg>
