<?xml version="1.0" encoding="UTF-8"?>
<svg width="25px" height="16px" viewBox="0 0 25 16" version="1.1" xmlns="http://www.w3.org/2000/svg" xmlns:xlink="http://www.w3.org/1999/xlink">
    <!-- Generator: sketchtool 50 (54983) - http://www.bohemiancoding.com/sketch -->
    <title>AD9E9F34-A90B-44D6-8ACC-52F9D86FE6CA</title>
    <desc>Created with sketchtool.</desc>
    <defs></defs>
    <g id="Symbols" stroke="none" stroke-width="1" fill="none" fill-rule="evenodd">
        <g id="Footer-user-area-desktop" transform="translate(-875.000000, -186.000000)" fill="#FFFFFF">
            <g id="Footer">
                <g id="#1" transform="translate(175.000000, 60.000000)">
                    <g id="Social" transform="translate(700.000000, 124.000000)">
                        <path d="M7.94054965,8.41582616 L15.5663767,8.41582616 C16.0973162,12.2496203 14.4952048,18 7.94054965,18 C3.55549773,18 0,14.417929 0,9.99968846 C0,5.58144788 3.55549773,2 7.94054965,2 C9.9980175,2 11.8727232,2.78819269 13.283399,4.081701 C11.6218125,5.66307099 11.6763314,5.75715565 11.023344,6.4151252 C10.2074195,5.73534795 9.31777067,5.24747848 7.94054965,5.24747848 C5.33541496,5.24747848 3.30210889,7.3752872 3.30210889,9.99968846 C3.30210889,12.6247128 5.33541496,14.7525215 7.94054965,14.7525215 C10.5147077,14.7525215 11.5604788,13.6340979 12.2332912,11.5798123 C10.9911283,11.5798123 7.94054965,11.5841738 7.94054965,11.5841738 L7.94054965,8.41582616 Z M22.2486556,8.57408778 L25,8.57408778 L25,10.5542272 L22.2486556,10.5542272 L22.2486556,13.4060516 L20.2834981,13.4060516 L20.2834981,10.5542272 L17.4528536,10.5542272 L17.4528536,8.57408778 L20.2834981,8.57408778 L20.2834981,5.80201721 L22.2486556,5.80201721 L22.2486556,8.57408778 Z" id="Google+"></path>
                    </g>
                </g>
            </g>
        </g>
    </g>
</svg>