<?xml version="1.0" encoding="UTF-8"?>
<svg width="21px" height="18px" viewBox="0 0 21 18" version="1.1" xmlns="http://www.w3.org/2000/svg" xmlns:xlink="http://www.w3.org/1999/xlink">
    <!-- Generator: sketchtool 50 (54983) - http://www.bohemiancoding.com/sketch -->
    <title>5E89655C-DCC0-4FF3-A438-FB667ED06CBE</title>
    <desc>Created with sketchtool.</desc>
    <defs></defs>
    <g id="Symbols" stroke="none" stroke-width="1" fill="none" fill-rule="evenodd">
        <g id="Footer-user-area-desktop" transform="translate(-951.000000, -185.000000)" fill="#FFFFFF">
            <g id="Footer">
                <g id="#1" transform="translate(175.000000, 60.000000)">
                    <g id="Social" transform="translate(700.000000, 124.000000)">
                        <path d="M96.4207941,1.33276729 C95.5875898,1.8529685 94.6669159,2.23129666 93.6828825,2.43372529 C92.8990201,1.55134408 91.778736,1 90.5384615,1 C88.1610819,1 86.2317037,3.03466726 86.2317037,5.54397488 C86.2317037,5.90038768 86.2687101,6.24584281 86.3427229,6.57861011 C82.7620751,6.38886931 79.5879369,4.58200634 77.4617521,1.829323 C77.0905668,2.50293166 76.8786212,3.28438691 76.8786212,4.11659351 C76.8786212,5.69219186 77.6389341,7.08323988 78.7956639,7.89814488 C78.0902998,7.87622953 77.4247457,7.66976387 76.8427362,7.33180609 L76.8427362,7.38717119 C76.8427362,9.5896639 78.3280378,11.427093 80.3005901,11.8429079 C79.9394975,11.9496011 79.5582196,12.003236 79.165167,12.003236 C78.8876191,12.003236 78.6167997,11.9755535 78.3543908,11.9224953 C78.9027581,13.7270514 80.4929111,15.0413957 82.3785545,15.0765756 C80.9044669,16.2957611 79.0457373,17.022428 77.0277681,17.022428 C76.6801324,17.022428 76.3364216,17.0016661 76,16.9601423 C77.9063893,18.2473807 80.1721891,19 82.6045177,19 C90.530051,19 94.8626011,12.0770562 94.8626011,6.07167345 C94.8626011,5.87385858 94.8592369,5.67662042 94.8519478,5.48284259 C95.6935626,4.84210695 96.424719,4.04219666 97,3.13097946 C96.228473,3.49200602 95.3975115,3.7365352 94.5261795,3.84611195 C95.4160147,3.28438691 96.0989507,2.39393163 96.4207941,1.33276729" id="Twitter"></path>
                    </g>
                </g>
            </g>
        </g>
    </g>
</svg>