<svg xmlns="http://www.w3.org/2000/svg" width="58" height="66" viewBox="0 0 58 66">
    <g fill="#9EDC15" fill-rule="nonzero" stroke="#9EDC15" stroke-width=".658" opacity=".95"
       transform="matrix(-1 0 0 1 57 1)">
        <path d="M20.244 43.195l2.948.002c3.12-.018 5.966-1.096 8.234-3.112s3.75-4.781 4.28-7.997a13.607 13.607 0 0 0-2.078-9.747c-1.914-2.89-4.75-4.813-7.985-5.408-.326-.061-1.148-.117-1.868-.154l-6.232.008-5.847-.006-.478.038c-2.813.274-5.48 1.65-7.512 3.872a13.37 13.37 0 0 0-3.451 8.005c-.21 2.797.323 5.477 1.534 7.747 1.148 2.154 2.91 3.946 5.114 5.213l1.741 6.013c.095.326.331.582.634.696a.986.986 0 0 0 .914-.123l7.09-5.029a191.76 191.76 0 0 1 2.962-.018zm-3.859-1.926l-6.196 4.395-1.463-5.053a1.046 1.046 0 0 0-.512-.64c-2.023-1.08-3.632-2.659-4.645-4.566-1.016-1.901-1.459-4.165-1.286-6.544a11.182 11.182 0 0 1 2.897-6.693c1.69-1.85 3.902-2.997 6.226-3.221l.37-.032 5.77.008 6.21-.008c.543.029 1.24.066 1.53.122 2.704.499 5.071 2.104 6.67 4.523a11.388 11.388 0 0 1 1.746 8.168c-.446 2.717-1.685 5.045-3.587 6.733-1.899 1.691-4.296 2.592-6.923 2.608l-2.943-.002c-1.191 0-2.65.005-3.314.021a.96.96 0 0 0-.55.181z"/>
        <path d="M22.158 11.32c0 .59.458 1.067 1.018 1.067H48.46v39.25H23.176c-.562 0-1.018.478-1.018 1.067 0 .59.458 1.067 1.018 1.067h25.855c.806 0 1.466-.688 1.466-1.536V11.792c0-.848-.66-1.536-1.466-1.536H23.179c-.563-.003-1.02.477-1.02 1.064z"/>
        <path d="M36.112 63.92h11.786c4.409-.093 7.952-3.925 7.893-8.53V8.618C55.845 4 52.301.17 47.875.08H24.322C19.913.168 16.37 4 16.42 8.605v3.979c0 .59.458 1.067 1.018 1.067.562 0 1.018-.478 1.018-1.067V8.592c-.043-3.45 2.604-6.312 5.88-6.379H47.85c3.294.067 5.942 2.928 5.898 6.392v46.798c.046 3.45-2.599 6.314-5.875 6.384H24.35c-3.294-.07-5.936-2.934-5.893-6.398v-7.178c0-.59-.458-1.067-1.018-1.067-.563 0-1.018.477-1.018 1.067v7.165c-.054 4.619 3.484 8.453 7.911 8.547h11.78v-.003z"/>
        <ellipse cx="36.107" cy="57.933" rx="2.334" ry="2.445"/>
        <path d="M39.315 7.344c.562 0 1.018-.477 1.018-1.067 0-.589-.458-1.066-1.018-1.066h-6.418c-.562 0-1.018.477-1.018 1.066 0 .59.458 1.067 1.018 1.067h6.418z"/>
    </g>
</svg>